PathFileType  4	(X/Y/Z) C:\Users\antoi\Documents\MyRepositories\mobilecap\ResultsAnalysis
DataRate	CameraRate	NumFrames	NumMarkers	Units	OrigDataRate	OrigDataStartFrame	OrigNumFrames
100.0	100.0	4	51	mm	100.0	219	291
Frame#	Time	r_knee			r_shank_antsup			r_ankle			r_calc			r_5meta			r_toe			L_knee			L_shank_antsup			L_ankle			L_calc			L_5meta			L_toe			r_sh2			r_sh3			r_sh4			L_sh2			L_sh3			r_thigh1			r_thigh2			r_thigh3			r_thigh4			r_thigh5			L_thigh1			L_thigh2			L_thigh3			L_thigh4			r.ASIS			r.PSIS			L.ASIS			L.PSIS			C7			R_Shoulder			L_Shoulder			R_Sternum			L_Sternum			R_humerus			R_elbow_med			R_elbow_lat			R_forearm			R_wrist_radius			R_wrist_ulna			L_humerus			L_elbow_med			L_elbow_lat			L_forearm			L_wrist_radius			L_wrist_ulna			R_HJC			L_HJC			R_HJC_reg			L_HJC_reg			
		X1	Y1	Z1	X2	Y2	Z2	X3	Y3	Z3	X4	Y4	Z4	X5	Y5	Z5	X6	Y6	Z6	X7	Y7	Z7	X8	Y8	Z8	X9	Y9	Z9	X10	Y10	Z10	X11	Y11	Z11	X12	Y12	Z12	X13	Y13	Z13	X14	Y14	Z14	X15	Y15	Z15	X16	Y16	Z16	X17	Y17	Z17	X18	Y18	Z18	X19	Y19	Z19	X20	Y20	Z20	X21	Y21	Z21	X22	Y22	Z22	X23	Y23	Z23	X24	Y24	Z24	X25	Y25	Z25	X26	Y26	Z26	X27	Y27	Z27	X28	Y28	Z28	X29	Y29	Z29	X30	Y30	Z30	X31	Y31	Z31	X32	Y32	Z32	X33	Y33	Z33	X34	Y34	Z34	X35	Y35	Z35	X36	Y36	Z36	X37	Y37	Z37	X38	Y38	Z38	X39	Y39	Z39	X40	Y40	Z40	X41	Y41	Z41	X42	Y42	Z42	X43	Y43	Z43	X44	Y44	Z44	X45	Y45	Z45	X46	Y46	Z46	X47	Y47	Z47	X48	Y48	Z48	X49	Y49	Z49	X50	Y50	Z50	X51	Y51	Z51	

219	2.18000000	-25.48298	435.23834	-361.20445	-50.40979	406.31725	-332.19967	-222.02309	101.02333	-380.90003	-293.81988	64.23875	-436.72850	-124.94935	39.92564	-325.58743	-70.74135	58.45666	-371.46724	-28.78514	447.49551	-736.28179	-7.58162	364.54791	-755.14651	-193.92885	102.56745	-752.36874	-270.03744	61.62841	-711.26554	-92.05154	42.11391	-791.37020	-44.53235	57.80933	-736.65753	-104.87621	303.47392	-327.31912	15.30522	377.24643	-359.96844	-39.17625	276.31928	-374.97798	-83.69991	411.65949	-762.63856	-135.58815	301.29774	-771.83174	-170.18616	685.49214	-435.08431	-80.62012	621.01136	-413.25229	-86.29422	594.80588	-350.77375	-219.25761	647.98826	-341.91950	-132.79987	571.49558	-330.12498	-229.58309	683.99316	-726.90196	-130.56296	583.61756	-749.36340	-309.88763	604.88290	-723.35286	-209.95494	508.60523	-716.10794	-219.49499	749.79679	-418.22163	-397.87650	827.12231	-490.92324	-225.78850	741.15037	-657.29468	-398.57526	828.52666	-585.44268	-77.36277	1198.17041	-545.49368	-11.62860	1137.86159	-393.13612	-31.11639	1112.55908	-697.10683	-5.80547	1068.44595	-525.73338	-15.54337	1061.50952	-559.92545	-23.21111	919.08627	-288.54128	-79.79651	813.31622	-312.27455	-46.59491	828.74606	-254.31732	84.31499	765.56316	-259.01055	179.51349	732.65772	-283.32550	159.62915	695.34108	-269.77952	-59.56902	899.74426	-796.34313	-104.47021	783.03156	-763.03802	-85.09583	794.57809	-823.40418	43.62528	716.16816	-816.35905	136.01583	674.22130	-789.63731	115.87410	635.32163	-786.41773	-311.32598	687.54751	-451.06228	-325.93300	695.37730	-641.01119	-306.46668	690.42576	-451.67024	-307.63578	692.77167	-609.59519	
220	2.19000000	-23.99322	435.63634	-360.70738	-49.18401	406.45388	-331.90172	-221.53671	101.65999	-380.77479	-293.45612	64.78478	-436.61999	-124.90601	39.83141	-325.79738	-70.44029	58.21405	-371.40366	-25.90175	446.96024	-737.50245	-5.15076	363.55275	-755.73004	-193.06434	102.69595	-752.16047	-269.75342	62.08919	-711.02662	-91.99516	42.03792	-791.48232	-44.29260	57.58324	-736.82144	-103.64596	303.65558	-327.38947	16.52746	377.54028	-359.56364	-38.00436	276.46882	-374.68563	-81.00653	410.72329	-763.50299	-133.48489	300.59863	-772.58422	-163.15876	689.02502	-435.13578	-75.89772	623.24995	-412.62090	-82.25135	596.75326	-350.40522	-214.18645	652.57161	-342.51086	-129.37682	574.18858	-330.25519	-222.18272	688.11866	-728.00175	-125.48093	585.39424	-750.18339	-304.20025	610.69892	-723.15107	-206.27338	512.41706	-716.46585	-214.17458	758.41312	-418.56512	-393.61525	833.00380	-492.16718	-219.02186	750.00209	-657.87434	-393.82155	834.44466	-586.97350	-86.28900	1213.75053	-546.43702	-19.10390	1158.76451	-394.95578	-36.67640	1132.11991	-697.33257	-9.45884	1087.12424	-526.16984	-19.02039	1080.05885	-560.32160	-16.44019	941.05713	-288.62314	-65.93621	830.47729	-310.82481	-32.85370	849.73996	-253.33294	105.23111	806.85021	-263.67937	203.02108	789.83536	-291.55963	189.68971	749.48268	-278.49399	-52.78473	918.98498	-797.25731	-90.78408	798.13399	-765.39405	-70.82378	812.01274	-826.32279	68.43137	755.18430	-811.20149	165.03387	730.41325	-779.61026	151.81099	688.51349	-776.27836	-304.89034	694.75829	-452.10662	-318.56235	702.58018	-642.12736	-300.06463	697.74985	-452.54826	-300.40770	700.15159	-610.60291	
221	2.20000000	-23.26928	436.31459	-359.99205	-48.70300	406.97399	-331.43188	-221.09116	102.16471	-380.59308	-293.08803	65.36820	-436.55901	-124.85347	39.76838	-325.90568	-70.27833	57.98075	-371.45460	-23.93932	446.30833	-738.26638	-3.34578	362.80744	-756.45984	-192.31470	102.89070	-752.39434	-269.51217	62.44915	-710.88247	-91.93262	41.92019	-791.63408	-44.02087	57.38930	-736.99972	-103.17474	304.44377	-327.24368	17.11387	378.07688	-358.94299	-37.42531	277.02516	-374.22611	-78.93154	410.08157	-764.82006	-131.78755	300.00638	-773.46098	-156.29545	693.46864	-434.82438	-71.55109	625.63605	-412.21382	-78.56716	598.99260	-350.16970	-209.24361	657.83520	-343.02134	-126.59265	578.06674	-329.63571	-214.47645	693.00099	-728.89706	-120.58028	587.67561	-751.16716	-298.46656	617.78158	-723.34809	-203.00728	517.15923	-717.42388	-208.79171	767.92080	-418.86462	-389.12503	839.53084	-493.48882	-212.00724	759.51987	-658.25743	-388.65712	840.95718	-588.66489	-95.16821	1229.33703	-547.31074	-26.78010	1180.35893	-397.06634	-41.88366	1152.87319	-697.50547	-12.96894	1106.06508	-526.51548	-22.36998	1098.80057	-560.56921	-9.86188	964.83392	-288.46481	-51.35221	849.80967	-308.83796	-18.67753	873.18183	-252.13947	123.39525	851.56382	-268.51840	220.80686	850.71173	-300.25955	214.54100	808.60833	-287.56107	-45.76893	940.13821	-798.43116	-76.30822	815.77888	-768.11246	-56.05353	831.93567	-829.25946	89.91468	798.27776	-806.13429	188.19093	791.83783	-770.12369	181.07434	747.32999	-766.13291	-298.25846	702.77170	-453.04516	-310.82410	710.40853	-643.15065	-293.54624	705.86494	-453.47168	-292.76506	708.23387	-611.56153	
222	2.21000000	-23.42932	437.50898	-359.20669	-49.11463	407.98065	-330.75228	-220.69485	102.61670	-380.33088	-292.62787	66.15585	-436.85764	-124.79418	39.79809	-325.82863	-70.17044	57.84703	-371.42791	-22.78167	446.15760	-739.15111	-2.17566	362.31416	-757.16403	-191.79428	103.06747	-752.91083	-269.30534	62.70169	-710.92367	-91.87744	41.76413	-791.72648	-43.81987	57.24217	-737.12253	-103.50525	305.65399	-326.81836	16.81515	379.16260	-358.07496	-37.38909	278.08737	-373.41181	-77.76348	409.89178	-766.60593	-130.47089	299.87236	-774.85996	-149.81630	698.95378	-434.50266	-67.24311	628.30373	-411.75194	-75.28040	601.75542	-349.76186	-204.60731	663.86484	-343.56602	-124.37912	582.92029	-328.70099	-206.62479	698.84074	-729.80230	-115.95044	590.80931	-752.51699	-292.75827	626.17828	-724.04352	-200.36024	522.16953	-717.15589	-203.42169	778.24887	-419.14680	-384.44766	846.81209	-494.91407	-204.73704	769.10070	-657.12579	-383.18759	848.19206	-590.37024	-103.94143	1245.06090	-548.11052	-34.44553	1202.79472	-399.54542	-46.67792	1174.80372	-697.64133	-16.15968	1125.27048	-526.78204	-24.39078	1119.15684	-560.42580	-3.40422	990.67081	-288.06234	-36.20993	871.65320	-306.57303	-4.33032	899.49595	-250.51075	138.22643	899.37738	-273.32153	232.26972	914.43677	-308.99720	233.35323	871.82241	-296.53894	-38.62663	963.27793	-799.77587	-61.86805	835.92147	-771.22653	-40.93492	854.68743	-832.22611	107.46052	845.16638	-801.72631	204.42371	856.97117	-761.39060	202.79395	810.70619	-756.54530	-291.80476	711.69057	-453.27441	-302.84045	718.51948	-643.50039	-286.84820	714.88964	-454.16917	-284.77656	717.16268	-611.32608	
